<svg
  xmlns="http://www.w3.org/2000/svg"
  viewBox="-.009206931106746197 -.0044399043545126915 96.12322998046875 91.00444030761719"
>
  <path
    d="M77.63 9.75c-4.41 0-8.82.05-13.23 0-3.1-.05-5.61-1.12-5.91-4.66C58.25 2.18 60.61.2 64.54.16 73 .06 81.38.08 89.8.15c3.13 0 6 .78 6.3 4.66.22 3-2.16 4.84-6.44 4.93-4 .09-8 0-12 0z"
    fill="#86aaf6"
  />
  <path
    d="M48.3 77.33h-12c-3 0-5.65-1.13-5.56-4.43.08-3.12 2.55-4.48 5.61-4.48h24.46c3.1 0 4.9 1.59 5 4.55.08 3.18-2.11 4.39-5 4.4H48.38z"
    fill="#eef4ff"
  />
  <path
    d="M23.75 13.74c3.61 0 7.23-.07 10.84 0 3 .08 5.57 1.53 5.57 4.58 0 2.9-2.28 4.91-5.34 5-7.49.14-15 .17-22.49 0-3-.07-4.64-2.06-4.54-5.06s1.93-4.36 4.72-4.45c3.74-.11 7.49 0 11.24 0z"
    fill="#86aaf6"
  />
  <path
    d="M46.47 37c-2.4 0-4.82.16-7.21 0a4.71 4.71 0 01-4.64-5.08c.05-2.78 2-4.31 4.79-4.34 4.68-.05 9.36-.07 14 0 3.05.05 5.39 1.35 5.25 4.72-.14 3.16-2.35 4.65-5.4 4.78-2.27.09-4.54 0-6.82 0zM35.11 41.26c2.53 0 5.07-.19 7.58.05a4.3 4.3 0 014.24 4.48 4.32 4.32 0 01-4.09 4.64 78.55 78.55 0 01-15.56 0 4.29 4.29 0 01-4-4.68 4.28 4.28 0 014.27-4.44c2.45-.24 5.03-.05 7.56-.05z"
    fill="#eef4ff"
  />
  <path
    d="M61.9 41.2a68.73 68.73 0 017.18 0c2.63.28 4.54 1.71 4.54 4.63s-1.93 4.48-4.55 4.61a132.09 132.09 0 01-14.35 0c-2.85-.17-4.57-2-4.44-5.12s2.22-4.05 4.84-4.2c2.25-.13 4.52 0 6.78 0z"
    fill="#eef4ff"
  />
  <path
    d="M42 82.12c2.26 0 4.54-.16 6.78 0s3.95 1.51 4 4.11c.08 2.76-1.43 4.41-4 4.52a138.29 138.29 0 01-14-.06 4.07 4.07 0 01-4.14-4.49c.16-2.59 1.93-4 4.52-4.17C37.43 82 39.7 82 42 82z"
    fill="#eef4ff"
  />
  <path
    d="M72.21 27.52a51.66 51.66 0 016 .05 4.39 4.39 0 014.26 4.85 4.28 4.28 0 01-4.23 4.47 87.29 87.29 0 01-11.55 0c-2.77-.21-4.86-2-4.79-4.93s2.3-4.32 5.15-4.47c1.73-.09 3.46 0 5.19 0z"
    fill="#eef4ff"
  />
  <path
    d="M26.79 9.89a38.57 38.57 0 01-5.14-.63 4 4 0 01-3.34-3.94A4.25 4.25 0 0121.49.79 25.41 25.41 0 0132.93.52a4.36 4.36 0 013.67 4.59c0 2.54-1.6 3.9-3.88 4.33a55.7 55.7 0 01-5.93.45zM61.58 22.71c-1.74 0-3.48.05-5.22 0-2.23-.09-3.92-1-4.27-3.41a4.1 4.1 0 013.11-4.95 30 30 0 0112.73-.17c2.34.41 3.51 2.43 3.29 4.86-.25 2.59-2 3.65-4.42 3.69h-5.22zm-5.1 40.87a42.92 42.92 0 01-5.2 0 3.92 3.92 0 01-3.67-4.06c-.06-2.24 1-4 3.3-4.4a34.39 34.39 0 0111.54 0c2.3.37 3.28 2.08 3.18 4.4s-1.22 3.85-3.56 4.08c-1.85.12-3.73-.03-5.59-.02z"
    fill="#eef4ff"
  />
  <path
    d="M23.13 37.08h-1.6c-4.23-.18-6.47-1.94-6.38-5s2.33-4.64 6.6-4.71c1.6 0 3.2 0 4.79.05 2.84.15 5 1.38 5.14 4.45s-1.92 4.81-5 5.13a32.87 32.87 0 01-3.58 0zM7.43 0c1.5.1 2.7.09 3.88.28A4.15 4.15 0 0115 4c.36 2.19-.32 4.18-2.35 5A12.37 12.37 0 012.93 9 4.26 4.26 0 010 4.67 4.91 4.91 0 013.8.48 18.51 18.51 0 017.43 0z"
    fill="#86aaf6"
  />
  <path
    d="M81.78 13.75c2.13 0 4.35-.2 5.86 1.8s1.61 4.2-.17 6.17c-2 2.17-8.86 2.36-11.29.33-2.07-1.74-2.24-3.89-.86-6.08 1.52-2.42 4.04-2.26 6.46-2.22z"
    fill="#86aaf6"
  />
  <path
    d="M36.83 63.73c-4 0-6.53-1.79-6.21-4.59.43-3.79 3.3-4.45 6.48-4.44 4.17 0 6.12 1.52 6 4.69s-1.85 4.37-6.27 4.34zM61.36 91c-2.52-.29-4.35-1.6-4.37-4.23s1.53-4.57 4.41-4.63 4.6 1.59 4.6 4.35-1.77 4.29-4.64 4.51z"
    fill="#eef4ff"
  />
</svg>
